<mxfile host="app.diagrams.net" modified="2023-05-30T11:58:32.487Z" agent="Mozilla/5.0 (Macintosh; Intel Mac OS X 10_15_7) AppleWebKit/605.1.15 (KHTML, like Gecko) Version/16.4 Safari/605.1.15" etag="AzCe6Eu8BVVGUBYxdoqx" version="21.3.3" type="github">
  <diagram id="prtHgNgQTEPvFCAcTncT" name="Page-1">
    <mxGraphModel dx="954" dy="675" grid="1" gridSize="10" guides="1" tooltips="1" connect="1" arrows="1" fold="1" page="1" pageScale="1" pageWidth="827" pageHeight="1169" math="0" shadow="0">
      <root>
        <mxCell id="0" />
        <mxCell id="1" parent="0" />
        <mxCell id="8QqoD97N3NyJGOmYzk0o-9" style="edgeStyle=orthogonalEdgeStyle;rounded=0;orthogonalLoop=1;jettySize=auto;html=1;entryX=-0.022;entryY=0.491;entryDx=0;entryDy=0;entryPerimeter=0;" edge="1" parent="1" source="8QqoD97N3NyJGOmYzk0o-2" target="8QqoD97N3NyJGOmYzk0o-4">
          <mxGeometry relative="1" as="geometry" />
        </mxCell>
        <mxCell id="8QqoD97N3NyJGOmYzk0o-10" style="edgeStyle=orthogonalEdgeStyle;rounded=0;orthogonalLoop=1;jettySize=auto;html=1;entryX=1;entryY=0.5;entryDx=0;entryDy=0;" edge="1" parent="1" source="8QqoD97N3NyJGOmYzk0o-2" target="8QqoD97N3NyJGOmYzk0o-5">
          <mxGeometry relative="1" as="geometry" />
        </mxCell>
        <mxCell id="8QqoD97N3NyJGOmYzk0o-2" value="" style="rhombus;whiteSpace=wrap;html=1;fillColor=#f9f7ed;strokeColor=#36393d;" vertex="1" parent="1">
          <mxGeometry x="180" y="220" width="40" height="40" as="geometry" />
        </mxCell>
        <mxCell id="8QqoD97N3NyJGOmYzk0o-8" style="edgeStyle=orthogonalEdgeStyle;rounded=0;orthogonalLoop=1;jettySize=auto;html=1;entryX=0.5;entryY=0;entryDx=0;entryDy=0;" edge="1" parent="1" source="8QqoD97N3NyJGOmYzk0o-3" target="8QqoD97N3NyJGOmYzk0o-2">
          <mxGeometry relative="1" as="geometry" />
        </mxCell>
        <mxCell id="8QqoD97N3NyJGOmYzk0o-3" value="" style="ellipse;whiteSpace=wrap;html=1;aspect=fixed;" vertex="1" parent="1">
          <mxGeometry x="180" y="120" width="40" height="40" as="geometry" />
        </mxCell>
        <mxCell id="8QqoD97N3NyJGOmYzk0o-13" style="edgeStyle=orthogonalEdgeStyle;rounded=0;orthogonalLoop=1;jettySize=auto;html=1;entryX=1;entryY=0.5;entryDx=0;entryDy=0;exitX=0.5;exitY=1;exitDx=0;exitDy=0;" edge="1" parent="1" source="8QqoD97N3NyJGOmYzk0o-4" target="8QqoD97N3NyJGOmYzk0o-11">
          <mxGeometry relative="1" as="geometry">
            <Array as="points">
              <mxPoint x="340" y="370" />
            </Array>
          </mxGeometry>
        </mxCell>
        <mxCell id="8QqoD97N3NyJGOmYzk0o-4" value="" style="rounded=1;whiteSpace=wrap;html=1;fillColor=#f9f7ed;strokeColor=#36393d;" vertex="1" parent="1">
          <mxGeometry x="280" y="210" width="120" height="60" as="geometry" />
        </mxCell>
        <mxCell id="8QqoD97N3NyJGOmYzk0o-12" style="edgeStyle=orthogonalEdgeStyle;rounded=0;orthogonalLoop=1;jettySize=auto;html=1;entryX=0;entryY=0.5;entryDx=0;entryDy=0;exitX=0.5;exitY=1;exitDx=0;exitDy=0;" edge="1" parent="1" source="8QqoD97N3NyJGOmYzk0o-5" target="8QqoD97N3NyJGOmYzk0o-11">
          <mxGeometry relative="1" as="geometry" />
        </mxCell>
        <mxCell id="8QqoD97N3NyJGOmYzk0o-5" value="" style="rounded=1;whiteSpace=wrap;html=1;fillColor=#f9f7ed;strokeColor=#36393d;" vertex="1" parent="1">
          <mxGeometry y="210" width="120" height="60" as="geometry" />
        </mxCell>
        <mxCell id="8QqoD97N3NyJGOmYzk0o-15" style="edgeStyle=orthogonalEdgeStyle;rounded=0;orthogonalLoop=1;jettySize=auto;html=1;entryX=0.5;entryY=0;entryDx=0;entryDy=0;" edge="1" parent="1" source="8QqoD97N3NyJGOmYzk0o-11" target="8QqoD97N3NyJGOmYzk0o-14">
          <mxGeometry relative="1" as="geometry" />
        </mxCell>
        <mxCell id="8QqoD97N3NyJGOmYzk0o-11" value="" style="rounded=1;whiteSpace=wrap;html=1;fillColor=#f9f7ed;strokeColor=#36393d;" vertex="1" parent="1">
          <mxGeometry x="140" y="340" width="120" height="60" as="geometry" />
        </mxCell>
        <mxCell id="8QqoD97N3NyJGOmYzk0o-17" style="edgeStyle=orthogonalEdgeStyle;rounded=0;orthogonalLoop=1;jettySize=auto;html=1;entryX=0.5;entryY=0;entryDx=0;entryDy=0;" edge="1" parent="1" source="8QqoD97N3NyJGOmYzk0o-14" target="8QqoD97N3NyJGOmYzk0o-16">
          <mxGeometry relative="1" as="geometry" />
        </mxCell>
        <mxCell id="8QqoD97N3NyJGOmYzk0o-14" value="" style="rhombus;whiteSpace=wrap;html=1;fillColor=#f9f7ed;strokeColor=#36393d;" vertex="1" parent="1">
          <mxGeometry x="180" y="460" width="40" height="40" as="geometry" />
        </mxCell>
        <mxCell id="8QqoD97N3NyJGOmYzk0o-19" style="edgeStyle=orthogonalEdgeStyle;rounded=0;orthogonalLoop=1;jettySize=auto;html=1;entryX=0;entryY=0.5;entryDx=0;entryDy=0;" edge="1" parent="1" source="8QqoD97N3NyJGOmYzk0o-16" target="8QqoD97N3NyJGOmYzk0o-18">
          <mxGeometry relative="1" as="geometry" />
        </mxCell>
        <mxCell id="8QqoD97N3NyJGOmYzk0o-16" value="" style="rounded=1;whiteSpace=wrap;html=1;fillColor=#f9f7ed;strokeColor=#36393d;" vertex="1" parent="1">
          <mxGeometry x="140" y="560" width="120" height="60" as="geometry" />
        </mxCell>
        <mxCell id="8QqoD97N3NyJGOmYzk0o-20" style="edgeStyle=orthogonalEdgeStyle;rounded=0;orthogonalLoop=1;jettySize=auto;html=1;" edge="1" parent="1" source="8QqoD97N3NyJGOmYzk0o-18">
          <mxGeometry relative="1" as="geometry">
            <mxPoint x="250" y="560" as="targetPoint" />
            <Array as="points">
              <mxPoint x="340" y="520" />
              <mxPoint x="250" y="520" />
            </Array>
          </mxGeometry>
        </mxCell>
        <mxCell id="8QqoD97N3NyJGOmYzk0o-22" style="edgeStyle=orthogonalEdgeStyle;rounded=0;orthogonalLoop=1;jettySize=auto;html=1;entryX=0;entryY=0.5;entryDx=0;entryDy=0;" edge="1" parent="1" source="8QqoD97N3NyJGOmYzk0o-18" target="8QqoD97N3NyJGOmYzk0o-21">
          <mxGeometry relative="1" as="geometry" />
        </mxCell>
        <mxCell id="8QqoD97N3NyJGOmYzk0o-18" value="" style="rhombus;whiteSpace=wrap;html=1;fillColor=#f9f7ed;strokeColor=#36393d;" vertex="1" parent="1">
          <mxGeometry x="320" y="570" width="40" height="40" as="geometry" />
        </mxCell>
        <mxCell id="8QqoD97N3NyJGOmYzk0o-24" style="edgeStyle=orthogonalEdgeStyle;rounded=0;orthogonalLoop=1;jettySize=auto;html=1;entryX=0.5;entryY=0;entryDx=0;entryDy=0;" edge="1" parent="1" source="8QqoD97N3NyJGOmYzk0o-21" target="8QqoD97N3NyJGOmYzk0o-23">
          <mxGeometry relative="1" as="geometry" />
        </mxCell>
        <mxCell id="8QqoD97N3NyJGOmYzk0o-21" value="" style="rounded=1;whiteSpace=wrap;html=1;fillColor=#f9f7ed;strokeColor=#36393d;" vertex="1" parent="1">
          <mxGeometry x="420" y="560" width="120" height="60" as="geometry" />
        </mxCell>
        <mxCell id="8QqoD97N3NyJGOmYzk0o-26" style="edgeStyle=orthogonalEdgeStyle;rounded=0;orthogonalLoop=1;jettySize=auto;html=1;entryX=0.5;entryY=0;entryDx=0;entryDy=0;" edge="1" parent="1" source="8QqoD97N3NyJGOmYzk0o-23" target="8QqoD97N3NyJGOmYzk0o-25">
          <mxGeometry relative="1" as="geometry" />
        </mxCell>
        <mxCell id="8QqoD97N3NyJGOmYzk0o-23" value="" style="rhombus;whiteSpace=wrap;html=1;fillColor=#f9f7ed;strokeColor=#36393d;" vertex="1" parent="1">
          <mxGeometry x="460" y="680" width="40" height="40" as="geometry" />
        </mxCell>
        <mxCell id="8QqoD97N3NyJGOmYzk0o-29" style="edgeStyle=orthogonalEdgeStyle;rounded=0;orthogonalLoop=1;jettySize=auto;html=1;entryX=1;entryY=0.5;entryDx=0;entryDy=0;" edge="1" parent="1" source="8QqoD97N3NyJGOmYzk0o-25" target="8QqoD97N3NyJGOmYzk0o-27">
          <mxGeometry relative="1" as="geometry" />
        </mxCell>
        <mxCell id="8QqoD97N3NyJGOmYzk0o-25" value="" style="rounded=1;whiteSpace=wrap;html=1;fillColor=#f9f7ed;strokeColor=#36393d;" vertex="1" parent="1">
          <mxGeometry x="420" y="780" width="120" height="60" as="geometry" />
        </mxCell>
        <mxCell id="8QqoD97N3NyJGOmYzk0o-31" style="edgeStyle=orthogonalEdgeStyle;rounded=0;orthogonalLoop=1;jettySize=auto;html=1;entryX=1;entryY=0.5;entryDx=0;entryDy=0;" edge="1" parent="1" source="8QqoD97N3NyJGOmYzk0o-27" target="8QqoD97N3NyJGOmYzk0o-30">
          <mxGeometry relative="1" as="geometry" />
        </mxCell>
        <mxCell id="8QqoD97N3NyJGOmYzk0o-36" style="edgeStyle=orthogonalEdgeStyle;rounded=0;orthogonalLoop=1;jettySize=auto;html=1;" edge="1" parent="1" source="8QqoD97N3NyJGOmYzk0o-27" target="8QqoD97N3NyJGOmYzk0o-35">
          <mxGeometry relative="1" as="geometry" />
        </mxCell>
        <mxCell id="8QqoD97N3NyJGOmYzk0o-27" value="" style="rhombus;whiteSpace=wrap;html=1;fillColor=#f9f7ed;strokeColor=#36393d;" vertex="1" parent="1">
          <mxGeometry x="320" y="790" width="40" height="40" as="geometry" />
        </mxCell>
        <mxCell id="8QqoD97N3NyJGOmYzk0o-34" style="edgeStyle=orthogonalEdgeStyle;rounded=0;orthogonalLoop=1;jettySize=auto;html=1;entryX=1;entryY=0.5;entryDx=0;entryDy=0;" edge="1" parent="1" source="8QqoD97N3NyJGOmYzk0o-30" target="8QqoD97N3NyJGOmYzk0o-32">
          <mxGeometry relative="1" as="geometry" />
        </mxCell>
        <mxCell id="8QqoD97N3NyJGOmYzk0o-30" value="" style="rounded=1;whiteSpace=wrap;html=1;fillColor=#f9f7ed;strokeColor=#36393d;" vertex="1" parent="1">
          <mxGeometry x="140" y="780" width="120" height="60" as="geometry" />
        </mxCell>
        <mxCell id="8QqoD97N3NyJGOmYzk0o-32" value="" style="ellipse;whiteSpace=wrap;html=1;aspect=fixed;fillColor=#a20025;fontColor=#ffffff;strokeColor=#6F0000;" vertex="1" parent="1">
          <mxGeometry x="40" y="790" width="40" height="40" as="geometry" />
        </mxCell>
        <mxCell id="8QqoD97N3NyJGOmYzk0o-37" style="edgeStyle=orthogonalEdgeStyle;rounded=0;orthogonalLoop=1;jettySize=auto;html=1;entryX=0.75;entryY=0;entryDx=0;entryDy=0;" edge="1" parent="1" source="8QqoD97N3NyJGOmYzk0o-35" target="8QqoD97N3NyJGOmYzk0o-16">
          <mxGeometry relative="1" as="geometry">
            <mxPoint x="240" y="480" as="targetPoint" />
            <Array as="points">
              <mxPoint x="600" y="900" />
              <mxPoint x="600" y="480" />
              <mxPoint x="230" y="480" />
            </Array>
          </mxGeometry>
        </mxCell>
        <mxCell id="8QqoD97N3NyJGOmYzk0o-35" value="" style="rhombus;whiteSpace=wrap;html=1;fillColor=#f9f7ed;strokeColor=#36393d;" vertex="1" parent="1">
          <mxGeometry x="320" y="880" width="40" height="40" as="geometry" />
        </mxCell>
      </root>
    </mxGraphModel>
  </diagram>
</mxfile>
